<svg width="64" height="64" viewBox="0 0 64 64" xmlns="http://www.w3.org/2000/svg"><title>wildcat-icon-black</title><g fill="none" fill-rule="evenodd"><path d="M20.6 63L10.1 14h10.99l5.11 26.11c.093.327.163.77.21 1.33.047.56.093.933.14 1.12.047-.233.093-.63.14-1.19a8.98 8.98 0 0 1 .21-1.4L33.13 14h9.31l6.3 26.04c.093.42.187.933.28 1.54.093.607.14.98.14 1.12.047-.187.093-.443.14-.77.047-.327.093-.63.14-.91l.14-.84L54.62 14h10.99L55.04 63H44.96L38.1 35.77c-.093-.42-.233-1.33-.42-2.73-.187 1.587-.327 2.473-.42 2.66L30.68 63H20.6z" fill="#000"/><path stroke="#000" stroke-width="3" d="M1.5 1.5h61v61h-61z"/></g></svg>