<svg width="259" height="108" viewBox="0 0 259 108" xmlns="http://www.w3.org/2000/svg"><title>wildcat-logo-black</title><g fill="none" fill-rule="evenodd"><path d="M28.858 77.8V94H26.05V77.8h-5.346v-2.7h13.5v2.7h-5.346zm20.901 16.524c-1.17 0-2.232-.189-3.186-.567-.954-.378-1.737-.882-2.349-1.512a8.383 8.383 0 0 1-1.539-2.241 11.182 11.182 0 0 1-.891-2.646c-.18-.9-.27-1.836-.27-2.808 0-.972.09-1.908.27-2.808.18-.9.477-1.782.891-2.646a8.383 8.383 0 0 1 1.539-2.241c.612-.63 1.395-1.134 2.349-1.512.954-.378 2.016-.567 3.186-.567s2.232.189 3.186.567c.954.378 1.737.882 2.349 1.512a8.383 8.383 0 0 1 1.539 2.241c.414.864.711 1.746.891 2.646.18.9.27 1.836.27 2.808 0 .972-.09 1.908-.27 2.808-.18.9-.477 1.782-.891 2.646a8.383 8.383 0 0 1-1.539 2.241c-.612.63-1.395 1.134-2.349 1.512-.954.378-2.016.567-3.186.567zm0-2.7c.936 0 1.764-.22 2.484-.661a4.636 4.636 0 0 0 1.674-1.742c.396-.72.688-1.471.878-2.255.189-.783.283-1.588.283-2.416 0-.864-.094-1.696-.283-2.498a8.569 8.569 0 0 0-.878-2.254 4.495 4.495 0 0 0-1.674-1.688c-.72-.423-1.548-.634-2.484-.634-.936 0-1.764.22-2.484.662a4.636 4.636 0 0 0-1.674 1.741 9.083 9.083 0 0 0-.877 2.254 10.262 10.262 0 0 0-.284 2.417c0 .864.094 1.696.284 2.498.189.8.481 1.552.877 2.254a4.495 4.495 0 0 0 1.674 1.688c.72.423 1.548.634 2.484.634zm25.41 2.7c-1.17 0-2.232-.189-3.186-.567-.954-.378-1.737-.882-2.349-1.512a8.383 8.383 0 0 1-1.539-2.241 11.182 11.182 0 0 1-.891-2.646c-.18-.9-.27-1.836-.27-2.808 0-.972.09-1.908.27-2.808.18-.9.477-1.782.891-2.646a8.383 8.383 0 0 1 1.539-2.241c.612-.63 1.395-1.134 2.349-1.512.954-.378 2.016-.567 3.186-.567s2.232.189 3.186.567c.954.378 1.737.882 2.349 1.512a8.383 8.383 0 0 1 1.539 2.241c.414.864.711 1.746.891 2.646.18.9.27 1.836.27 2.808 0 .972-.09 1.908-.27 2.808-.18.9-.477 1.782-.891 2.646a8.383 8.383 0 0 1-1.539 2.241c-.612.63-1.395 1.134-2.349 1.512-.954.378-2.016.567-3.186.567zm0-2.7c.936 0 1.764-.22 2.484-.661a4.636 4.636 0 0 0 1.674-1.742c.396-.72.688-1.471.878-2.255.189-.783.283-1.588.283-2.416 0-.864-.094-1.696-.283-2.498a8.569 8.569 0 0 0-.878-2.254 4.495 4.495 0 0 0-1.674-1.688c-.72-.423-1.548-.634-2.484-.634-.936 0-1.764.22-2.484.662a4.636 4.636 0 0 0-1.674 1.741 9.083 9.083 0 0 0-.877 2.254 10.262 10.262 0 0 0-.284 2.417c0 .864.094 1.696.284 2.498.189.8.481 1.552.877 2.254a4.495 4.495 0 0 0 1.674 1.688c.72.423 1.548.634 2.484.634zM93.019 94V75.1h2.808v16.2h9.234V94H93.019zm32.487 0V75.1h7.965c2.142 0 3.694.531 4.657 1.593.964 1.062 1.445 2.394 1.445 3.996a5.676 5.676 0 0 1-1.04 3.308c-.693.999-1.714 1.678-3.064 2.038L139.357 94h-3.213l-3.726-7.722h-4.104V94h-2.808zm2.808-10.422h5.211c1.08 0 1.872-.274 2.376-.824.504-.549.756-1.237.756-2.065 0-.792-.238-1.471-.716-2.038-.477-.568-1.282-.851-2.416-.851h-5.211v5.778zM149.188 94V75.1h11.718v2.646h-8.91v5.184h5.751v2.646h-5.751v5.778h9.504V94h-12.312zm21.657 0V75.1h7.587c2.142 0 3.717.558 4.725 1.674 1.008 1.116 1.512 2.484 1.512 4.104 0 1.512-.522 2.853-1.566 4.023-1.044 1.17-2.601 1.755-4.671 1.755h-4.779V94h-2.808zm7.749-10.044c1.08 0 1.876-.301 2.39-.904.513-.604.769-1.328.769-2.174 0-.81-.247-1.525-.742-2.147-.496-.62-1.301-.931-2.417-.931h-4.941v6.156h4.941zM202.951 94l-1.512-4.347h-7.641L192.259 94h-2.916l6.831-18.9h2.889l6.804 18.9h-2.916zm-2.376-6.831l-2.295-6.426c-.324-.882-.54-1.593-.648-2.133a24.779 24.779 0 0 1-.648 2.133l-2.322 6.426h5.913zM214.456 94V75.1h2.808V94h-2.808zm13.233 0V75.1h7.965c2.142 0 3.694.531 4.657 1.593.964 1.062 1.445 2.394 1.445 3.996a5.676 5.676 0 0 1-1.04 3.308c-.693.999-1.714 1.678-3.064 2.038L241.54 94h-3.213l-3.726-7.722h-4.104V94h-2.808zm2.808-10.422h5.211c1.08 0 1.872-.274 2.376-.824.504-.549.756-1.237.756-2.065 0-.792-.238-1.471-.716-2.038-.477-.568-1.282-.851-2.416-.851h-5.211v5.778zM26.617 64l-10.35-48.3H27.1l5.037 25.737c.092.322.161.759.207 1.311.046.552.092.92.138 1.104.046-.23.092-.621.138-1.173a8.853 8.853 0 0 1 .207-1.38L38.968 15.7h9.177l6.21 25.668c.092.414.184.92.276 1.518.092.598.138.966.138 1.104a7.9 7.9 0 0 0 .138-.759c.046-.322.092-.621.138-.897l.138-.828L60.151 15.7h10.833L60.565 64h-9.936l-6.762-26.841c-.092-.414-.23-1.311-.414-2.691-.184 1.564-.322 2.438-.414 2.622L36.553 64h-9.936zm54.218-38.64c-1.564 0-2.921-.563-4.071-1.69-1.15-1.128-1.725-2.473-1.725-4.037s.563-2.898 1.69-4.002c1.128-1.104 2.496-1.656 4.106-1.656 1.61 0 2.967.54 4.071 1.622 1.104 1.08 1.656 2.426 1.656 4.036 0 1.564-.552 2.91-1.656 4.037-1.104 1.127-2.461 1.69-4.071 1.69zM75.798 64V28.741h10.005V64H75.798zm18.269 0V18.874l10.005-4.692V64H94.067zm30.965.828c-4.462 0-7.992-1.587-10.591-4.761-2.6-3.174-3.899-7.751-3.899-13.731 0-5.566 1.38-10.028 4.14-13.386 2.76-3.358 6.256-5.037 10.488-5.037 3.036 0 5.382 1.173 7.038 3.519V18.667l10.005-4.485V64h-10.005v-2.898c-1.288 2.484-3.68 3.726-7.176 3.726zm1.725-9.66c2.576 0 4.393-.736 5.451-2.208V39.919c-1.242-1.564-3.059-2.346-5.451-2.346-1.978 0-3.507.759-4.589 2.277-1.08 1.518-1.621 3.68-1.621 6.486 0 5.888 2.07 8.832 6.21 8.832zm38.072 9.66c-5.014 0-9.016-1.633-12.006-4.899s-4.485-7.774-4.485-13.524c0-5.658 1.506-10.154 4.52-13.49 3.013-3.335 7.003-5.002 11.971-5.002 8.004 0 13.156 3.68 15.456 11.04l-9.522 3.105c-1.15-3.036-3.082-4.554-5.796-4.554-1.886 0-3.438.828-4.657 2.484-1.22 1.656-1.829 3.795-1.829 6.417s.598 4.75 1.794 6.383c1.196 1.633 2.714 2.449 4.554 2.449 2.898 0 4.876-1.702 5.934-5.106l9.591 2.76c-2.346 7.958-7.521 11.937-15.525 11.937zM206.213 64v-2.622c-2.116 2.3-5.037 3.45-8.763 3.45-3.91 0-7.095-1-9.556-3.002-2.462-2-3.692-4.864-3.692-8.59 0-3.634 1.426-6.428 4.278-8.383 2.852-1.956 6.187-2.933 10.005-2.933 3.312 0 5.888.414 7.728 1.242V41.23c0-1.61-.506-2.84-1.518-3.691-1.012-.852-2.415-1.277-4.209-1.277-3.818 0-7.59 1.242-11.316 3.726l-3.105-7.659c4.324-2.944 9.361-4.416 15.111-4.416 9.982 0 14.973 4.6 14.973 13.8V64h-9.936zm-6.831-7.59c2.484 0 4.761-.828 6.831-2.484v-3.174c-1.84-.552-3.841-.828-6.003-.828-4.14 0-6.21 1.127-6.21 3.381 0 2.07 1.794 3.105 5.382 3.105zm34.553 8.418c-5.934 0-8.901-3.22-8.901-9.66V37.504h-4.83v-8.763h4.83v-9.798l9.936-4.761v14.559h7.659v8.763h-7.659v16.698c0 .644.195 1.138.587 1.483.39.346.862.518 1.414.518 2.024 0 4.048-.46 6.072-1.38l-1.104 8.418c-2.162 1.058-4.83 1.587-8.004 1.587z" fill="#000"/><path stroke="#000" stroke-width="3" d="M1.5 1.5h256v105H1.5z"/></g></svg>